<mxfile host="Electron" modified="2023-10-27T04:03:29.430Z" agent="Mozilla/5.0 (Windows NT 10.0; Win64; x64) AppleWebKit/537.36 (KHTML, like Gecko) draw.io/22.0.2 Chrome/114.0.5735.289 Electron/25.8.4 Safari/537.36" etag="1igxcWHUln_zcyodAm_F" version="22.0.2" type="device">
  <diagram id="kWllGDHQSPJGRlG6Iizl" name="Updated Node Diagram">
    <mxGraphModel dx="8381" dy="4544" grid="0" gridSize="10" guides="1" tooltips="1" connect="1" arrows="1" fold="1" page="0" pageScale="1" pageWidth="827" pageHeight="1169" math="0" shadow="0">
      <root>
        <mxCell id="0" />
        <mxCell id="1" parent="0" />
        <mxCell id="zEa8WuOgElTmcph--bMK-1" style="edgeStyle=orthogonalEdgeStyle;rounded=0;orthogonalLoop=1;jettySize=auto;html=1;exitX=1;exitY=0.5;exitDx=0;exitDy=0;entryX=0;entryY=0.5;entryDx=0;entryDy=0;fontSize=17;strokeWidth=3;fontFamily=Calibri;fontStyle=1" parent="1" source="zEa8WuOgElTmcph--bMK-2" target="zEa8WuOgElTmcph--bMK-9" edge="1">
          <mxGeometry relative="1" as="geometry" />
        </mxCell>
        <mxCell id="zEa8WuOgElTmcph--bMK-2" value="/usb_cam" style="rounded=0;whiteSpace=wrap;html=1;movable=1;resizable=1;rotatable=1;deletable=1;editable=1;locked=0;connectable=1;fillColor=#ffe6cc;strokeColor=#d79b00;fontColor=#000000;fontSize=17;strokeWidth=3;fontFamily=Calibri;fontStyle=1" parent="1" vertex="1">
          <mxGeometry x="-7258" y="-3728" width="100" height="20" as="geometry" />
        </mxCell>
        <mxCell id="zEa8WuOgElTmcph--bMK-3" style="edgeStyle=orthogonalEdgeStyle;rounded=0;orthogonalLoop=1;jettySize=auto;html=1;exitX=1;exitY=0.5;exitDx=0;exitDy=0;entryX=0;entryY=0.5;entryDx=0;entryDy=0;fontSize=17;strokeWidth=3;fontFamily=Calibri;fontStyle=1" parent="1" source="zEa8WuOgElTmcph--bMK-4" target="zEa8WuOgElTmcph--bMK-14" edge="1">
          <mxGeometry relative="1" as="geometry" />
        </mxCell>
        <mxCell id="zEa8WuOgElTmcph--bMK-4" value="/yolov8" style="rounded=0;whiteSpace=wrap;html=1;movable=1;resizable=1;rotatable=1;deletable=1;editable=1;locked=0;connectable=1;fillColor=#ffe6cc;strokeColor=#d79b00;fontColor=#000000;fontSize=17;strokeWidth=3;fontFamily=Calibri;fontStyle=1" parent="1" vertex="1">
          <mxGeometry x="-7243" y="-3439.5" width="75" height="20" as="geometry" />
        </mxCell>
        <mxCell id="GLEPuOQoC-FSqrMFr7xG-17" style="edgeStyle=orthogonalEdgeStyle;rounded=0;orthogonalLoop=1;jettySize=auto;html=1;exitX=1;exitY=0.5;exitDx=0;exitDy=0;entryX=0;entryY=0.5;entryDx=0;entryDy=0;fontSize=17;strokeWidth=3;fontFamily=Calibri;fontStyle=1" parent="1" source="zEa8WuOgElTmcph--bMK-6" target="zEa8WuOgElTmcph--bMK-65" edge="1">
          <mxGeometry relative="1" as="geometry" />
        </mxCell>
        <mxCell id="zEa8WuOgElTmcph--bMK-6" value="/pizza_size_estimation" style="rounded=0;whiteSpace=wrap;html=1;movable=1;resizable=1;rotatable=1;deletable=1;editable=1;locked=0;connectable=1;fillColor=#f8cecc;strokeColor=#b85450;fontColor=#000000;fontSize=17;strokeWidth=3;fontFamily=Calibri;fontStyle=1" parent="1" vertex="1">
          <mxGeometry x="-6942.5" y="-3318" width="169.5" height="20" as="geometry" />
        </mxCell>
        <mxCell id="zEa8WuOgElTmcph--bMK-129" style="edgeStyle=orthogonalEdgeStyle;rounded=0;orthogonalLoop=1;jettySize=auto;html=1;exitX=1;exitY=0.5;exitDx=0;exitDy=0;entryX=0;entryY=0.25;entryDx=0;entryDy=0;fontSize=17;strokeWidth=3;fontFamily=Calibri;fontStyle=1" parent="1" source="zEa8WuOgElTmcph--bMK-9" target="zEa8WuOgElTmcph--bMK-29" edge="1">
          <mxGeometry relative="1" as="geometry" />
        </mxCell>
        <mxCell id="zEa8WuOgElTmcph--bMK-9" value="/image_raw" style="ellipse;whiteSpace=wrap;html=1;movable=1;resizable=1;rotatable=1;deletable=1;editable=1;locked=0;connectable=1;fontSize=17;strokeWidth=3;fontFamily=Calibri;fontStyle=1" parent="1" vertex="1">
          <mxGeometry x="-7107" y="-3740" width="97" height="46" as="geometry" />
        </mxCell>
        <mxCell id="zEa8WuOgElTmcph--bMK-151" style="edgeStyle=orthogonalEdgeStyle;rounded=0;orthogonalLoop=1;jettySize=auto;html=1;exitX=1;exitY=0.5;exitDx=0;exitDy=0;entryX=0;entryY=0.25;entryDx=0;entryDy=0;strokeColor=#3399FF;fontSize=17;strokeWidth=3;fontFamily=Calibri;fontStyle=1" parent="1" source="zEa8WuOgElTmcph--bMK-14" target="zEa8WuOgElTmcph--bMK-67" edge="1">
          <mxGeometry relative="1" as="geometry" />
        </mxCell>
        <mxCell id="zEa8WuOgElTmcph--bMK-153" style="edgeStyle=orthogonalEdgeStyle;rounded=0;orthogonalLoop=1;jettySize=auto;html=1;exitX=1;exitY=0.5;exitDx=0;exitDy=0;entryX=0;entryY=0.25;entryDx=0;entryDy=0;strokeColor=#3399FF;fontSize=17;strokeWidth=3;fontFamily=Calibri;fontStyle=1" parent="1" source="zEa8WuOgElTmcph--bMK-14" target="zEa8WuOgElTmcph--bMK-48" edge="1">
          <mxGeometry relative="1" as="geometry">
            <Array as="points">
              <mxPoint x="-6987" y="-3429" />
              <mxPoint x="-6987" y="-3199" />
            </Array>
          </mxGeometry>
        </mxCell>
        <mxCell id="zEa8WuOgElTmcph--bMK-154" style="edgeStyle=orthogonalEdgeStyle;rounded=0;orthogonalLoop=1;jettySize=auto;html=1;exitX=1;exitY=0.5;exitDx=0;exitDy=0;entryX=0;entryY=0.25;entryDx=0;entryDy=0;strokeColor=#3399FF;fontSize=17;strokeWidth=3;fontFamily=Calibri;fontStyle=1" parent="1" source="zEa8WuOgElTmcph--bMK-14" target="zEa8WuOgElTmcph--bMK-16" edge="1">
          <mxGeometry relative="1" as="geometry">
            <Array as="points">
              <mxPoint x="-6987" y="-3429" />
              <mxPoint x="-6987" y="-3093" />
            </Array>
          </mxGeometry>
        </mxCell>
        <mxCell id="zEa8WuOgElTmcph--bMK-156" style="edgeStyle=orthogonalEdgeStyle;rounded=0;orthogonalLoop=1;jettySize=auto;html=1;exitX=1;exitY=0.5;exitDx=0;exitDy=0;entryX=0;entryY=0.25;entryDx=0;entryDy=0;strokeColor=#3399FF;fontSize=17;strokeWidth=3;fontFamily=Calibri;fontStyle=1" parent="1" source="zEa8WuOgElTmcph--bMK-14" target="zEa8WuOgElTmcph--bMK-6" edge="1">
          <mxGeometry relative="1" as="geometry">
            <Array as="points">
              <mxPoint x="-6987" y="-3429" />
              <mxPoint x="-6987" y="-3313" />
            </Array>
          </mxGeometry>
        </mxCell>
        <mxCell id="zEa8WuOgElTmcph--bMK-14" value="/yolo/detections" style="ellipse;whiteSpace=wrap;html=1;movable=1;resizable=1;rotatable=1;deletable=1;editable=1;locked=0;connectable=1;fontSize=17;strokeWidth=3;fontFamily=Calibri;fontStyle=1" parent="1" vertex="1">
          <mxGeometry x="-7137" y="-3455.75" width="132" height="52.5" as="geometry" />
        </mxCell>
        <mxCell id="GLEPuOQoC-FSqrMFr7xG-12" style="edgeStyle=orthogonalEdgeStyle;rounded=0;orthogonalLoop=1;jettySize=auto;html=1;exitX=1;exitY=0.5;exitDx=0;exitDy=0;entryX=0;entryY=0.5;entryDx=0;entryDy=0;fontSize=17;strokeWidth=3;fontFamily=Calibri;fontStyle=1" parent="1" source="zEa8WuOgElTmcph--bMK-16" target="GLEPuOQoC-FSqrMFr7xG-11" edge="1">
          <mxGeometry relative="1" as="geometry" />
        </mxCell>
        <mxCell id="zEa8WuOgElTmcph--bMK-16" value="/pizza_position_estimation" style="rounded=0;whiteSpace=wrap;html=1;movable=1;resizable=1;rotatable=1;deletable=1;editable=1;locked=0;connectable=1;fillColor=#f8cecc;strokeColor=#b85450;fontColor=#000000;fontSize=17;strokeWidth=3;fontFamily=Calibri;fontStyle=1" parent="1" vertex="1">
          <mxGeometry x="-6958" y="-3099" width="187" height="21.5" as="geometry" />
        </mxCell>
        <mxCell id="GLEPuOQoC-FSqrMFr7xG-10" style="edgeStyle=orthogonalEdgeStyle;rounded=0;orthogonalLoop=1;jettySize=auto;html=1;exitX=1;exitY=0.25;exitDx=0;exitDy=0;fontSize=17;strokeWidth=3;fontFamily=Calibri;fontStyle=1" parent="1" source="HF17gQeOxWjfUrb4KybP-2" target="zEa8WuOgElTmcph--bMK-43" edge="1">
          <mxGeometry relative="1" as="geometry">
            <mxPoint x="-6305" y="-2985" as="sourcePoint" />
          </mxGeometry>
        </mxCell>
        <mxCell id="zEa8WuOgElTmcph--bMK-19" style="edgeStyle=orthogonalEdgeStyle;rounded=0;orthogonalLoop=1;jettySize=auto;html=1;exitX=1;exitY=0.5;exitDx=0;exitDy=0;entryX=0;entryY=0.5;entryDx=0;entryDy=0;fontSize=17;strokeWidth=3;fontFamily=Calibri;fontStyle=1" parent="1" source="zEa8WuOgElTmcph--bMK-20" target="zEa8WuOgElTmcph--bMK-22" edge="1">
          <mxGeometry relative="1" as="geometry" />
        </mxCell>
        <mxCell id="zEa8WuOgElTmcph--bMK-20" value="/robot_state_broadcaster" style="rounded=0;whiteSpace=wrap;html=1;movable=1;resizable=1;rotatable=1;deletable=1;editable=1;locked=0;connectable=1;fillColor=#ffe6cc;strokeColor=#d79b00;fontColor=#000000;fontSize=17;strokeWidth=3;fontFamily=Calibri;fontStyle=1" parent="1" vertex="1">
          <mxGeometry x="-7328" y="-3597" width="195" height="20" as="geometry" />
        </mxCell>
        <mxCell id="zEa8WuOgElTmcph--bMK-131" style="edgeStyle=orthogonalEdgeStyle;rounded=0;orthogonalLoop=1;jettySize=auto;html=1;exitX=1;exitY=0.5;exitDx=0;exitDy=0;entryX=0;entryY=0.75;entryDx=0;entryDy=0;fontSize=17;strokeWidth=3;fontFamily=Calibri;fontStyle=1" parent="1" source="zEa8WuOgElTmcph--bMK-22" target="zEa8WuOgElTmcph--bMK-29" edge="1">
          <mxGeometry relative="1" as="geometry" />
        </mxCell>
        <mxCell id="zEa8WuOgElTmcph--bMK-22" value="/tool_tf" style="ellipse;whiteSpace=wrap;html=1;movable=1;resizable=1;rotatable=1;deletable=1;editable=1;locked=0;connectable=1;fontSize=17;strokeWidth=3;fontFamily=Calibri;fontStyle=1" parent="1" vertex="1">
          <mxGeometry x="-7107" y="-3602" width="90" height="30" as="geometry" />
        </mxCell>
        <mxCell id="GLEPuOQoC-FSqrMFr7xG-8" style="edgeStyle=orthogonalEdgeStyle;rounded=0;orthogonalLoop=1;jettySize=auto;html=1;exitX=1;exitY=0.5;exitDx=0;exitDy=0;entryX=0;entryY=0.5;entryDx=0;entryDy=0;fontSize=17;strokeWidth=3;fontFamily=Calibri;fontStyle=1" parent="1" source="zEa8WuOgElTmcph--bMK-24" target="zEa8WuOgElTmcph--bMK-4" edge="1">
          <mxGeometry relative="1" as="geometry">
            <Array as="points">
              <mxPoint x="-6605" y="-3730" />
              <mxPoint x="-6605" y="-3468" />
              <mxPoint x="-7274" y="-3468" />
              <mxPoint x="-7274" y="-3430" />
            </Array>
          </mxGeometry>
        </mxCell>
        <mxCell id="HF17gQeOxWjfUrb4KybP-5" style="edgeStyle=orthogonalEdgeStyle;rounded=0;orthogonalLoop=1;jettySize=auto;html=1;exitX=1;exitY=0.5;exitDx=0;exitDy=0;fontSize=17;entryX=0;entryY=0.25;entryDx=0;entryDy=0;strokeWidth=3;fontFamily=Calibri;fontStyle=1" parent="1" source="zEa8WuOgElTmcph--bMK-24" target="HF17gQeOxWjfUrb4KybP-2" edge="1">
          <mxGeometry relative="1" as="geometry">
            <mxPoint x="-6993" y="-3033" as="targetPoint" />
            <Array as="points">
              <mxPoint x="-6606" y="-3730" />
              <mxPoint x="-6606" y="-3468" />
              <mxPoint x="-7274" y="-3468" />
              <mxPoint x="-7274" y="-2985" />
            </Array>
          </mxGeometry>
        </mxCell>
        <mxCell id="zEa8WuOgElTmcph--bMK-24" value="/image_warped" style="ellipse;whiteSpace=wrap;html=1;movable=1;resizable=1;rotatable=1;deletable=1;editable=1;locked=0;connectable=1;fontSize=17;strokeWidth=3;fontFamily=Calibri;fontStyle=1" parent="1" vertex="1">
          <mxGeometry x="-6774" y="-3747" width="130" height="35" as="geometry" />
        </mxCell>
        <mxCell id="zEa8WuOgElTmcph--bMK-133" style="edgeStyle=orthogonalEdgeStyle;rounded=0;orthogonalLoop=1;jettySize=auto;html=1;exitX=1;exitY=0;exitDx=0;exitDy=0;entryX=0;entryY=0.5;entryDx=0;entryDy=0;fontSize=17;strokeWidth=3;fontFamily=Calibri;fontStyle=1" parent="1" source="zEa8WuOgElTmcph--bMK-29" target="zEa8WuOgElTmcph--bMK-24" edge="1">
          <mxGeometry relative="1" as="geometry">
            <mxPoint x="-6668.869565217391" y="-3709.913043478261" as="targetPoint" />
            <Array as="points">
              <mxPoint x="-6812" y="-3662" />
              <mxPoint x="-6812" y="-3729" />
              <mxPoint x="-6774" y="-3729" />
            </Array>
          </mxGeometry>
        </mxCell>
        <mxCell id="zEa8WuOgElTmcph--bMK-142" style="edgeStyle=orthogonalEdgeStyle;rounded=0;orthogonalLoop=1;jettySize=auto;html=1;exitX=1;exitY=1;exitDx=0;exitDy=0;entryX=0;entryY=0.5;entryDx=0;entryDy=0;fontSize=17;strokeWidth=3;fontFamily=Calibri;fontStyle=1" parent="1" source="zEa8WuOgElTmcph--bMK-29" target="zEa8WuOgElTmcph--bMK-41" edge="1">
          <mxGeometry relative="1" as="geometry">
            <Array as="points">
              <mxPoint x="-6814" y="-3642" />
              <mxPoint x="-6814" y="-3558" />
            </Array>
          </mxGeometry>
        </mxCell>
        <mxCell id="zEa8WuOgElTmcph--bMK-29" value="/image_warper" style="rounded=0;whiteSpace=wrap;html=1;movable=1;resizable=1;rotatable=1;deletable=1;editable=1;locked=0;connectable=1;fillColor=#f8cecc;strokeColor=#b85450;fontColor=#000000;fontSize=17;strokeWidth=3;fontFamily=Calibri;fontStyle=1" parent="1" vertex="1">
          <mxGeometry x="-6970" y="-3662" width="140" height="20" as="geometry" />
        </mxCell>
        <mxCell id="GLEPuOQoC-FSqrMFr7xG-1" style="edgeStyle=orthogonalEdgeStyle;rounded=0;orthogonalLoop=1;jettySize=auto;html=1;exitX=1;exitY=0.5;exitDx=0;exitDy=0;entryX=0;entryY=0.75;entryDx=0;entryDy=0;strokeColor=#0c9202;fontSize=17;strokeWidth=3;fontFamily=Calibri;fontStyle=1" parent="1" source="zEa8WuOgElTmcph--bMK-41" target="zEa8WuOgElTmcph--bMK-67" edge="1">
          <mxGeometry relative="1" as="geometry">
            <Array as="points">
              <mxPoint x="-6644" y="-3558" />
              <mxPoint x="-6644" y="-3520" />
              <mxPoint x="-7319" y="-3520" />
              <mxPoint x="-7319" y="-3396" />
              <mxPoint x="-7002" y="-3396" />
              <mxPoint x="-7002" y="-3420" />
            </Array>
          </mxGeometry>
        </mxCell>
        <mxCell id="GLEPuOQoC-FSqrMFr7xG-2" style="edgeStyle=orthogonalEdgeStyle;rounded=0;orthogonalLoop=1;jettySize=auto;html=1;exitX=1;exitY=0.5;exitDx=0;exitDy=0;entryX=0;entryY=0.75;entryDx=0;entryDy=0;strokeColor=#0c9202;fontSize=17;strokeWidth=3;fontFamily=Calibri;fontStyle=1" parent="1" source="zEa8WuOgElTmcph--bMK-41" target="zEa8WuOgElTmcph--bMK-6" edge="1">
          <mxGeometry relative="1" as="geometry">
            <Array as="points">
              <mxPoint x="-6644" y="-3558" />
              <mxPoint x="-6644" y="-3520" />
              <mxPoint x="-7319" y="-3520" />
              <mxPoint x="-7319" y="-3303" />
            </Array>
          </mxGeometry>
        </mxCell>
        <mxCell id="GLEPuOQoC-FSqrMFr7xG-3" style="edgeStyle=orthogonalEdgeStyle;rounded=0;orthogonalLoop=1;jettySize=auto;html=1;exitX=1;exitY=0.5;exitDx=0;exitDy=0;entryX=0;entryY=0.75;entryDx=0;entryDy=0;strokeColor=#0c9202;fontSize=17;strokeWidth=3;fontFamily=Calibri;fontStyle=1" parent="1" source="zEa8WuOgElTmcph--bMK-41" target="zEa8WuOgElTmcph--bMK-48" edge="1">
          <mxGeometry relative="1" as="geometry">
            <Array as="points">
              <mxPoint x="-6644" y="-3558" />
              <mxPoint x="-6644" y="-3520" />
              <mxPoint x="-7319" y="-3520" />
              <mxPoint x="-7319" y="-3189" />
            </Array>
          </mxGeometry>
        </mxCell>
        <mxCell id="GLEPuOQoC-FSqrMFr7xG-4" style="edgeStyle=orthogonalEdgeStyle;rounded=0;orthogonalLoop=1;jettySize=auto;html=1;exitX=1;exitY=0.5;exitDx=0;exitDy=0;entryX=0;entryY=0.75;entryDx=0;entryDy=0;strokeColor=#0C9202;fontSize=17;strokeWidth=3;fontFamily=Calibri;fontStyle=1" parent="1" source="zEa8WuOgElTmcph--bMK-41" target="zEa8WuOgElTmcph--bMK-16" edge="1">
          <mxGeometry relative="1" as="geometry">
            <Array as="points">
              <mxPoint x="-6644" y="-3558" />
              <mxPoint x="-6644" y="-3520" />
              <mxPoint x="-7319" y="-3520" />
              <mxPoint x="-7319" y="-3082" />
            </Array>
          </mxGeometry>
        </mxCell>
        <mxCell id="HF17gQeOxWjfUrb4KybP-4" style="edgeStyle=orthogonalEdgeStyle;rounded=0;orthogonalLoop=1;jettySize=auto;html=1;exitX=1;exitY=0.5;exitDx=0;exitDy=0;strokeColor=#0C9202;fontSize=17;entryX=0;entryY=0.75;entryDx=0;entryDy=0;strokeWidth=3;fontFamily=Calibri;fontStyle=1" parent="1" source="zEa8WuOgElTmcph--bMK-41" target="HF17gQeOxWjfUrb4KybP-2" edge="1">
          <mxGeometry relative="1" as="geometry">
            <mxPoint x="-7107" y="-2915" as="targetPoint" />
            <Array as="points">
              <mxPoint x="-6644" y="-3558" />
              <mxPoint x="-6644" y="-3520" />
              <mxPoint x="-7319" y="-3520" />
              <mxPoint x="-7319" y="-2975" />
            </Array>
          </mxGeometry>
        </mxCell>
        <mxCell id="zEa8WuOgElTmcph--bMK-41" value="/warp_pov_tf" style="ellipse;whiteSpace=wrap;html=1;movable=1;resizable=1;rotatable=1;deletable=1;editable=1;locked=0;connectable=1;fontSize=17;strokeWidth=3;fontFamily=Calibri;fontStyle=1" parent="1" vertex="1">
          <mxGeometry x="-6777" y="-3577" width="114" height="38" as="geometry" />
        </mxCell>
        <mxCell id="GLEPuOQoC-FSqrMFr7xG-14" style="edgeStyle=orthogonalEdgeStyle;rounded=0;orthogonalLoop=1;jettySize=auto;html=1;exitX=1;exitY=0.5;exitDx=0;exitDy=0;entryX=0;entryY=0.75;entryDx=0;entryDy=0;fontSize=17;strokeWidth=3;fontFamily=Calibri;fontStyle=1" parent="1" source="zEa8WuOgElTmcph--bMK-43" target="GLEPuOQoC-FSqrMFr7xG-13" edge="1">
          <mxGeometry relative="1" as="geometry">
            <Array as="points">
              <mxPoint x="-6612" y="-2985" />
              <mxPoint x="-6612" y="-3031" />
            </Array>
          </mxGeometry>
        </mxCell>
        <mxCell id="zEa8WuOgElTmcph--bMK-43" value="/pizza_rotation" style="ellipse;whiteSpace=wrap;html=1;movable=1;resizable=1;rotatable=1;deletable=1;editable=1;locked=0;connectable=1;fontSize=17;strokeWidth=3;fontFamily=Calibri;fontStyle=1" parent="1" vertex="1">
          <mxGeometry x="-6741.5" y="-3010" width="113.5" height="49" as="geometry" />
        </mxCell>
        <mxCell id="GLEPuOQoC-FSqrMFr7xG-18" style="edgeStyle=orthogonalEdgeStyle;rounded=0;orthogonalLoop=1;jettySize=auto;html=1;exitX=1;exitY=0.5;exitDx=0;exitDy=0;entryX=0;entryY=0.5;entryDx=0;entryDy=0;fontSize=17;strokeWidth=3;fontFamily=Calibri;fontStyle=1" parent="1" source="zEa8WuOgElTmcph--bMK-48" target="zEa8WuOgElTmcph--bMK-69" edge="1">
          <mxGeometry relative="1" as="geometry" />
        </mxCell>
        <mxCell id="zEa8WuOgElTmcph--bMK-48" value="/plate_position_estimation" style="rounded=0;whiteSpace=wrap;html=1;movable=1;resizable=1;rotatable=1;deletable=1;editable=1;locked=0;connectable=1;fillColor=#f8cecc;strokeColor=#b85450;fontColor=#000000;fontSize=17;strokeWidth=3;fontFamily=Calibri;fontStyle=1" parent="1" vertex="1">
          <mxGeometry x="-6968" y="-3204.5" width="201" height="20" as="geometry" />
        </mxCell>
        <mxCell id="GLEPuOQoC-FSqrMFr7xG-21" style="edgeStyle=orthogonalEdgeStyle;rounded=0;orthogonalLoop=1;jettySize=auto;html=1;exitX=1;exitY=0.5;exitDx=0;exitDy=0;entryX=0;entryY=0.5;entryDx=0;entryDy=0;fontSize=17;strokeWidth=3;fontFamily=Calibri;fontStyle=1" parent="1" source="zEa8WuOgElTmcph--bMK-59" target="zEa8WuOgElTmcph--bMK-63" edge="1">
          <mxGeometry relative="1" as="geometry" />
        </mxCell>
        <mxCell id="zEa8WuOgElTmcph--bMK-59" value="/plate_tf_broadcaster" style="rounded=0;whiteSpace=wrap;html=1;movable=1;resizable=1;rotatable=1;deletable=1;editable=1;locked=0;connectable=1;fillColor=#f8cecc;strokeColor=#b85450;fontColor=#000000;fontSize=17;strokeWidth=3;fontFamily=Calibri;fontStyle=1" parent="1" vertex="1">
          <mxGeometry x="-6593" y="-3204.5" width="160" height="20" as="geometry" />
        </mxCell>
        <mxCell id="GLEPuOQoC-FSqrMFr7xG-31" style="edgeStyle=orthogonalEdgeStyle;rounded=0;orthogonalLoop=1;jettySize=auto;html=1;exitX=1;exitY=0;exitDx=0;exitDy=0;entryX=0;entryY=0.75;entryDx=0;entryDy=0;strokeColor=#3399FF;fontSize=17;strokeWidth=3;fontFamily=Calibri;fontStyle=1" parent="1" source="zEa8WuOgElTmcph--bMK-63" target="GLEPuOQoC-FSqrMFr7xG-26" edge="1">
          <mxGeometry relative="1" as="geometry">
            <Array as="points">
              <mxPoint x="-6304" y="-3206" />
              <mxPoint x="-6304" y="-3409" />
            </Array>
          </mxGeometry>
        </mxCell>
        <mxCell id="GLEPuOQoC-FSqrMFr7xG-45" style="edgeStyle=orthogonalEdgeStyle;rounded=0;orthogonalLoop=1;jettySize=auto;html=1;exitX=1;exitY=0.5;exitDx=0;exitDy=0;entryX=0;entryY=0.25;entryDx=0;entryDy=0;strokeColor=#0C9202;fontSize=17;strokeWidth=3;fontFamily=Calibri;fontStyle=1" parent="1" source="zEa8WuOgElTmcph--bMK-63" target="GLEPuOQoC-FSqrMFr7xG-47" edge="1">
          <mxGeometry relative="1" as="geometry">
            <mxPoint x="-5257" y="-3194" as="targetPoint" />
          </mxGeometry>
        </mxCell>
        <mxCell id="zEa8WuOgElTmcph--bMK-63" value="/plate_tf" style="ellipse;whiteSpace=wrap;html=1;movable=1;resizable=1;rotatable=1;deletable=1;editable=1;locked=0;connectable=1;fontSize=17;strokeWidth=3;fontFamily=Calibri;fontStyle=1" parent="1" vertex="1">
          <mxGeometry x="-6411" y="-3210" width="90" height="30" as="geometry" />
        </mxCell>
        <mxCell id="GLEPuOQoC-FSqrMFr7xG-32" style="edgeStyle=orthogonalEdgeStyle;rounded=0;orthogonalLoop=1;jettySize=auto;html=1;exitX=1;exitY=0;exitDx=0;exitDy=0;entryX=0;entryY=0.5;entryDx=0;entryDy=0;strokeColor=#3399FF;fontSize=17;strokeWidth=3;fontFamily=Calibri;fontStyle=1" parent="1" source="zEa8WuOgElTmcph--bMK-65" target="GLEPuOQoC-FSqrMFr7xG-26" edge="1">
          <mxGeometry relative="1" as="geometry">
            <Array as="points">
              <mxPoint x="-6304" y="-3319" />
              <mxPoint x="-6304" y="-3414" />
            </Array>
          </mxGeometry>
        </mxCell>
        <mxCell id="GLEPuOQoC-FSqrMFr7xG-38" style="edgeStyle=orthogonalEdgeStyle;rounded=0;orthogonalLoop=1;jettySize=auto;html=1;exitX=1;exitY=1;exitDx=0;exitDy=0;entryX=0;entryY=0.5;entryDx=0;entryDy=0;fontSize=17;strokeWidth=3;fontFamily=Calibri;fontStyle=1" parent="1" source="zEa8WuOgElTmcph--bMK-65" target="GLEPuOQoC-FSqrMFr7xG-34" edge="1">
          <mxGeometry relative="1" as="geometry">
            <Array as="points">
              <mxPoint x="-6274" y="-3297" />
              <mxPoint x="-6274" y="-2915" />
            </Array>
          </mxGeometry>
        </mxCell>
        <mxCell id="zEa8WuOgElTmcph--bMK-65" value="/pizza_size" style="ellipse;whiteSpace=wrap;html=1;movable=1;resizable=1;rotatable=1;deletable=1;editable=1;locked=0;connectable=1;fontSize=17;strokeWidth=3;fontFamily=Calibri;fontStyle=1" parent="1" vertex="1">
          <mxGeometry x="-6746.5" y="-3323" width="90" height="30" as="geometry" />
        </mxCell>
        <mxCell id="GLEPuOQoC-FSqrMFr7xG-25" style="edgeStyle=orthogonalEdgeStyle;rounded=0;orthogonalLoop=1;jettySize=auto;html=1;exitX=1;exitY=0.5;exitDx=0;exitDy=0;fontSize=17;strokeWidth=3;fontFamily=Calibri;fontStyle=1" parent="1" source="zEa8WuOgElTmcph--bMK-67" target="GLEPuOQoC-FSqrMFr7xG-24" edge="1">
          <mxGeometry relative="1" as="geometry" />
        </mxCell>
        <mxCell id="zEa8WuOgElTmcph--bMK-67" value="/plate_size_estimation" style="rounded=0;whiteSpace=wrap;html=1;movable=1;resizable=1;rotatable=1;deletable=1;editable=1;locked=0;connectable=1;fillColor=#f8cecc;strokeColor=#b85450;fontColor=#000000;fontSize=17;strokeWidth=3;fontFamily=Calibri;fontStyle=1" parent="1" vertex="1">
          <mxGeometry x="-6947.5" y="-3434.5" width="170.5" height="20" as="geometry" />
        </mxCell>
        <mxCell id="GLEPuOQoC-FSqrMFr7xG-20" style="edgeStyle=orthogonalEdgeStyle;rounded=0;orthogonalLoop=1;jettySize=auto;html=1;exitX=1;exitY=0.5;exitDx=0;exitDy=0;entryX=0;entryY=0.5;entryDx=0;entryDy=0;fontSize=17;strokeWidth=3;fontFamily=Calibri;fontStyle=1" parent="1" source="zEa8WuOgElTmcph--bMK-69" target="zEa8WuOgElTmcph--bMK-59" edge="1">
          <mxGeometry relative="1" as="geometry" />
        </mxCell>
        <mxCell id="zEa8WuOgElTmcph--bMK-69" value="/plate_position" style="ellipse;whiteSpace=wrap;html=1;movable=1;resizable=1;rotatable=1;deletable=1;editable=1;locked=0;connectable=1;fontSize=17;strokeWidth=3;fontFamily=Calibri;fontStyle=1" parent="1" vertex="1">
          <mxGeometry x="-6740" y="-3213" width="119" height="37" as="geometry" />
        </mxCell>
        <mxCell id="zEa8WuOgElTmcph--bMK-110" value="&lt;span style=&quot;font-size: 48px;&quot;&gt;Pizza Cutter Node Diagram&lt;/span&gt;" style="text;html=1;strokeColor=none;fillColor=none;align=center;verticalAlign=middle;whiteSpace=wrap;rounded=0;strokeWidth=3;fontStyle=1" parent="1" vertex="1">
          <mxGeometry x="-6429" y="-3882" width="785" height="110" as="geometry" />
        </mxCell>
        <mxCell id="zEa8WuOgElTmcph--bMK-111" value="" style="rounded=1;whiteSpace=wrap;html=1;fontSize=17;strokeWidth=3;fontFamily=Calibri;fontStyle=1" parent="1" vertex="1">
          <mxGeometry x="-5429" y="-3896" width="334" height="353" as="geometry" />
        </mxCell>
        <mxCell id="zEa8WuOgElTmcph--bMK-112" value="&lt;font style=&quot;font-size: 49px;&quot;&gt;Legend&lt;/font&gt;" style="text;html=1;strokeColor=none;fillColor=none;align=center;verticalAlign=middle;whiteSpace=wrap;rounded=0;fontSize=49;strokeWidth=3;fontFamily=Calibri;fontStyle=1" parent="1" vertex="1">
          <mxGeometry x="-5340" y="-3879" width="130" height="30" as="geometry" />
        </mxCell>
        <mxCell id="zEa8WuOgElTmcph--bMK-113" value="" style="ellipse;whiteSpace=wrap;html=1;fontSize=17;strokeWidth=3;fontFamily=Calibri;fontStyle=1" parent="1" vertex="1">
          <mxGeometry x="-5269.25" y="-3785" width="110" height="30" as="geometry" />
        </mxCell>
        <mxCell id="zEa8WuOgElTmcph--bMK-114" value="" style="rounded=0;whiteSpace=wrap;html=1;movable=1;resizable=1;rotatable=1;deletable=1;editable=1;locked=0;connectable=1;fontSize=17;strokeWidth=3;fontFamily=Calibri;fontStyle=1" parent="1" vertex="1">
          <mxGeometry x="-5274.25" y="-3825" width="120" height="20" as="geometry" />
        </mxCell>
        <mxCell id="zEa8WuOgElTmcph--bMK-115" value="Node" style="text;html=1;strokeColor=none;fillColor=none;align=center;verticalAlign=middle;whiteSpace=wrap;rounded=0;fontSize=17;strokeWidth=3;fontFamily=Calibri;fontStyle=1" parent="1" vertex="1">
          <mxGeometry x="-5379.25" y="-3830" width="60" height="30" as="geometry" />
        </mxCell>
        <mxCell id="zEa8WuOgElTmcph--bMK-116" value="Topic" style="text;html=1;strokeColor=none;fillColor=none;align=center;verticalAlign=middle;whiteSpace=wrap;rounded=0;fontSize=17;strokeWidth=3;fontFamily=Calibri;fontStyle=1" parent="1" vertex="1">
          <mxGeometry x="-5379.25" y="-3785" width="60" height="30" as="geometry" />
        </mxCell>
        <mxCell id="zEa8WuOgElTmcph--bMK-118" value="Complete" style="text;html=1;strokeColor=none;fillColor=none;align=center;verticalAlign=middle;whiteSpace=wrap;rounded=0;fontSize=17;strokeWidth=3;fontFamily=Calibri;fontStyle=1" parent="1" vertex="1">
          <mxGeometry x="-5379.25" y="-3745" width="60" height="30" as="geometry" />
        </mxCell>
        <mxCell id="zEa8WuOgElTmcph--bMK-120" value="Supplied" style="text;html=1;strokeColor=none;fillColor=none;align=center;verticalAlign=middle;whiteSpace=wrap;rounded=0;fontSize=17;strokeWidth=3;fontFamily=Calibri;fontStyle=1" parent="1" vertex="1">
          <mxGeometry x="-5379.25" y="-3715" width="60" height="30" as="geometry" />
        </mxCell>
        <mxCell id="zEa8WuOgElTmcph--bMK-122" value="Incomplete" style="text;html=1;strokeColor=none;fillColor=none;align=center;verticalAlign=middle;whiteSpace=wrap;rounded=0;fontSize=17;strokeWidth=3;fontFamily=Calibri;fontStyle=1" parent="1" vertex="1">
          <mxGeometry x="-5376.75" y="-3685" width="60" height="30" as="geometry" />
        </mxCell>
        <mxCell id="zEa8WuOgElTmcph--bMK-123" style="edgeStyle=orthogonalEdgeStyle;rounded=0;orthogonalLoop=1;jettySize=auto;html=1;exitX=1;exitY=0.5;exitDx=0;exitDy=0;entryX=0;entryY=0.5;entryDx=0;entryDy=0;strokeWidth=3;fontStyle=1" parent="1" source="zEa8WuOgElTmcph--bMK-124" target="zEa8WuOgElTmcph--bMK-125" edge="1">
          <mxGeometry relative="1" as="geometry" />
        </mxCell>
        <mxCell id="zEa8WuOgElTmcph--bMK-124" value="&lt;font style=&quot;font-size: 36px;&quot;&gt;Inputs&lt;/font&gt;" style="rounded=0;whiteSpace=wrap;html=1;strokeColor=none;fillColor=none;strokeWidth=3;fontStyle=1" parent="1" vertex="1">
          <mxGeometry x="-6369" y="-3772" width="120" height="60" as="geometry" />
        </mxCell>
        <mxCell id="zEa8WuOgElTmcph--bMK-125" value="&lt;font style=&quot;font-size: 36px;&quot;&gt;Outputs (generally)&lt;/font&gt;" style="rounded=0;whiteSpace=wrap;html=1;strokeColor=none;fillColor=none;strokeWidth=3;fontStyle=1" parent="1" vertex="1">
          <mxGeometry x="-6084" y="-3772" width="335" height="60" as="geometry" />
        </mxCell>
        <mxCell id="GLEPuOQoC-FSqrMFr7xG-16" style="edgeStyle=orthogonalEdgeStyle;rounded=0;orthogonalLoop=1;jettySize=auto;html=1;exitX=1;exitY=0.5;exitDx=0;exitDy=0;entryX=0;entryY=0.25;entryDx=0;entryDy=0;fontSize=17;strokeWidth=3;fontFamily=Calibri;fontStyle=1" parent="1" source="GLEPuOQoC-FSqrMFr7xG-11" target="GLEPuOQoC-FSqrMFr7xG-13" edge="1">
          <mxGeometry relative="1" as="geometry">
            <Array as="points">
              <mxPoint x="-6612" y="-3087" />
              <mxPoint x="-6612" y="-3041" />
            </Array>
          </mxGeometry>
        </mxCell>
        <mxCell id="GLEPuOQoC-FSqrMFr7xG-11" value="/pizza_position" style="ellipse;whiteSpace=wrap;html=1;movable=1;resizable=1;rotatable=1;deletable=1;editable=1;locked=0;connectable=1;fontSize=17;strokeWidth=3;fontFamily=Calibri;fontStyle=1" parent="1" vertex="1">
          <mxGeometry x="-6741.5" y="-3106.75" width="122" height="38.5" as="geometry" />
        </mxCell>
        <mxCell id="GLEPuOQoC-FSqrMFr7xG-23" style="edgeStyle=orthogonalEdgeStyle;rounded=0;orthogonalLoop=1;jettySize=auto;html=1;exitX=1;exitY=0.5;exitDx=0;exitDy=0;entryX=0;entryY=0.5;entryDx=0;entryDy=0;fontSize=17;strokeWidth=3;fontFamily=Calibri;fontStyle=1" parent="1" source="GLEPuOQoC-FSqrMFr7xG-13" target="GLEPuOQoC-FSqrMFr7xG-22" edge="1">
          <mxGeometry relative="1" as="geometry" />
        </mxCell>
        <mxCell id="GLEPuOQoC-FSqrMFr7xG-13" value="/pizza_tf_broadcaster" style="rounded=0;whiteSpace=wrap;html=1;movable=1;resizable=1;rotatable=1;deletable=1;editable=1;locked=0;connectable=1;fillColor=#f8cecc;strokeColor=#b85450;fontColor=#000000;fontSize=17;strokeWidth=3;fontFamily=Calibri;fontStyle=1" parent="1" vertex="1">
          <mxGeometry x="-6593" y="-3046" width="150" height="20" as="geometry" />
        </mxCell>
        <mxCell id="GLEPuOQoC-FSqrMFr7xG-30" style="edgeStyle=orthogonalEdgeStyle;rounded=0;orthogonalLoop=1;jettySize=auto;html=1;exitX=1;exitY=0;exitDx=0;exitDy=0;entryX=0;entryY=1;entryDx=0;entryDy=0;strokeColor=#3399FF;fontSize=17;strokeWidth=3;fontFamily=Calibri;fontStyle=1" parent="1" source="GLEPuOQoC-FSqrMFr7xG-22" target="GLEPuOQoC-FSqrMFr7xG-26" edge="1">
          <mxGeometry relative="1" as="geometry">
            <Array as="points">
              <mxPoint x="-6304" y="-3047" />
              <mxPoint x="-6304" y="-3404" />
            </Array>
          </mxGeometry>
        </mxCell>
        <mxCell id="GLEPuOQoC-FSqrMFr7xG-37" style="edgeStyle=orthogonalEdgeStyle;rounded=0;orthogonalLoop=1;jettySize=auto;html=1;exitX=1;exitY=1;exitDx=0;exitDy=0;entryX=0;entryY=1;entryDx=0;entryDy=0;fontSize=17;strokeWidth=3;fontFamily=Calibri;fontStyle=1" parent="1" source="GLEPuOQoC-FSqrMFr7xG-22" target="GLEPuOQoC-FSqrMFr7xG-34" edge="1">
          <mxGeometry relative="1" as="geometry">
            <Array as="points">
              <mxPoint x="-6288" y="-3026" />
              <mxPoint x="-6288" y="-2905" />
            </Array>
          </mxGeometry>
        </mxCell>
        <mxCell id="GLEPuOQoC-FSqrMFr7xG-22" value="/pizza_tf" style="ellipse;whiteSpace=wrap;html=1;movable=1;resizable=1;rotatable=1;deletable=1;editable=1;locked=0;connectable=1;fontSize=17;strokeWidth=3;fontFamily=Calibri;fontStyle=1" parent="1" vertex="1">
          <mxGeometry x="-6420" y="-3051.5" width="90" height="30" as="geometry" />
        </mxCell>
        <mxCell id="HF17gQeOxWjfUrb4KybP-10" style="edgeStyle=orthogonalEdgeStyle;rounded=0;orthogonalLoop=1;jettySize=auto;html=1;exitX=1;exitY=0.5;exitDx=0;exitDy=0;entryX=0;entryY=0;entryDx=0;entryDy=0;strokeColor=#3399FF;fontSize=17;strokeWidth=3;fontFamily=Calibri;fontStyle=1" parent="1" source="GLEPuOQoC-FSqrMFr7xG-24" target="GLEPuOQoC-FSqrMFr7xG-26" edge="1">
          <mxGeometry relative="1" as="geometry">
            <Array as="points">
              <mxPoint x="-6362" y="-3424" />
              <mxPoint x="-6362" y="-3424" />
            </Array>
          </mxGeometry>
        </mxCell>
        <mxCell id="GLEPuOQoC-FSqrMFr7xG-24" value="/plate_size" style="ellipse;whiteSpace=wrap;html=1;movable=1;resizable=1;rotatable=1;deletable=1;editable=1;locked=0;connectable=1;fontSize=17;strokeWidth=3;fontFamily=Calibri;fontStyle=1" parent="1" vertex="1">
          <mxGeometry x="-6750" y="-3439" width="90" height="30" as="geometry" />
        </mxCell>
        <mxCell id="GLEPuOQoC-FSqrMFr7xG-26" value="/markers" style="rounded=0;whiteSpace=wrap;html=1;movable=1;resizable=1;rotatable=1;deletable=1;editable=1;locked=0;connectable=1;fillColor=#f8cecc;strokeColor=#b85450;fontColor=#000000;fontSize=17;strokeWidth=3;fontFamily=Calibri;fontStyle=1" parent="1" vertex="1">
          <mxGeometry x="-6259" y="-3424" width="150" height="20" as="geometry" />
        </mxCell>
        <mxCell id="GLEPuOQoC-FSqrMFr7xG-40" style="edgeStyle=orthogonalEdgeStyle;rounded=0;orthogonalLoop=1;jettySize=auto;html=1;exitX=1;exitY=0.5;exitDx=0;exitDy=0;entryX=0;entryY=0.5;entryDx=0;entryDy=0;fontSize=17;strokeWidth=3;fontFamily=Calibri;fontStyle=1" parent="1" source="GLEPuOQoC-FSqrMFr7xG-34" target="GLEPuOQoC-FSqrMFr7xG-39" edge="1">
          <mxGeometry relative="1" as="geometry" />
        </mxCell>
        <mxCell id="GLEPuOQoC-FSqrMFr7xG-34" value="/pizza_state_monitor" style="rounded=0;whiteSpace=wrap;html=1;movable=1;resizable=1;rotatable=1;deletable=1;editable=1;locked=0;connectable=1;fillColor=#f8cecc;strokeColor=#b85450;fontColor=#000000;fontSize=17;strokeWidth=3;fontFamily=Calibri;fontStyle=1" parent="1" vertex="1">
          <mxGeometry x="-6224" y="-2925" width="150" height="20" as="geometry" />
        </mxCell>
        <mxCell id="GLEPuOQoC-FSqrMFr7xG-80" style="edgeStyle=orthogonalEdgeStyle;rounded=0;orthogonalLoop=1;jettySize=auto;html=1;exitX=1;exitY=0.5;exitDx=0;exitDy=0;entryX=0;entryY=0.75;entryDx=0;entryDy=0;strokeColor=#0C9202;fontSize=17;strokeWidth=3;fontFamily=Calibri;fontStyle=1" parent="1" source="GLEPuOQoC-FSqrMFr7xG-39" target="GLEPuOQoC-FSqrMFr7xG-42" edge="1">
          <mxGeometry relative="1" as="geometry">
            <Array as="points">
              <mxPoint x="-5321" y="-2915" />
              <mxPoint x="-5321" y="-3396" />
            </Array>
          </mxGeometry>
        </mxCell>
        <mxCell id="GLEPuOQoC-FSqrMFr7xG-81" style="edgeStyle=orthogonalEdgeStyle;rounded=0;orthogonalLoop=1;jettySize=auto;html=1;exitX=1;exitY=0.5;exitDx=0;exitDy=0;entryX=0;entryY=0.5;entryDx=0;entryDy=0;strokeColor=#0C9202;fontSize=17;strokeWidth=3;fontFamily=Calibri;fontStyle=1" parent="1" source="GLEPuOQoC-FSqrMFr7xG-39" target="GLEPuOQoC-FSqrMFr7xG-41" edge="1">
          <mxGeometry relative="1" as="geometry">
            <Array as="points">
              <mxPoint x="-5321" y="-2915" />
              <mxPoint x="-5321" y="-3278" />
            </Array>
          </mxGeometry>
        </mxCell>
        <mxCell id="GLEPuOQoC-FSqrMFr7xG-39" value="/slice_tf" style="ellipse;whiteSpace=wrap;html=1;movable=1;resizable=1;rotatable=1;deletable=1;editable=1;locked=0;connectable=1;fontSize=17;strokeWidth=3;fontFamily=Calibri;fontStyle=1" parent="1" vertex="1">
          <mxGeometry x="-6029" y="-2935" width="130" height="40" as="geometry" />
        </mxCell>
        <mxCell id="GLEPuOQoC-FSqrMFr7xG-67" style="edgeStyle=orthogonalEdgeStyle;rounded=0;orthogonalLoop=1;jettySize=auto;html=1;exitX=1;exitY=0.75;exitDx=0;exitDy=0;entryX=1;entryY=0;entryDx=0;entryDy=0;strokeColor=#3399FF;fontSize=17;strokeWidth=3;fontFamily=Calibri;fontStyle=1" parent="1" source="GLEPuOQoC-FSqrMFr7xG-41" target="GLEPuOQoC-FSqrMFr7xG-64" edge="1">
          <mxGeometry relative="1" as="geometry">
            <mxPoint x="-4295.315789473684" y="-3201.960526315789" as="targetPoint" />
            <Array as="points">
              <mxPoint x="-5082" y="-3273.75" />
              <mxPoint x="-5082" y="-3247.75" />
            </Array>
          </mxGeometry>
        </mxCell>
        <mxCell id="HF17gQeOxWjfUrb4KybP-12" style="edgeStyle=orthogonalEdgeStyle;rounded=0;orthogonalLoop=1;jettySize=auto;html=1;exitX=1;exitY=0.25;exitDx=0;exitDy=0;entryX=0;entryY=0.5;entryDx=0;entryDy=0;fontSize=17;strokeWidth=3;fontFamily=Calibri;fontStyle=1" parent="1" source="GLEPuOQoC-FSqrMFr7xG-41" target="HF17gQeOxWjfUrb4KybP-11" edge="1">
          <mxGeometry relative="1" as="geometry">
            <Array as="points">
              <mxPoint x="-5057" y="-3282.75" />
              <mxPoint x="-5057" y="-3215.75" />
              <mxPoint x="-5274" y="-3215.75" />
              <mxPoint x="-5274" y="-3145.75" />
            </Array>
          </mxGeometry>
        </mxCell>
        <mxCell id="GLEPuOQoC-FSqrMFr7xG-41" value="/moveit_trajectory" style="rounded=0;whiteSpace=wrap;html=1;movable=1;resizable=1;rotatable=1;deletable=1;editable=1;locked=0;connectable=1;fillColor=#f8cecc;strokeColor=#b85450;fontSize=17;strokeWidth=3;fontFamily=Calibri;fontStyle=1" parent="1" vertex="1">
          <mxGeometry x="-5264.25" y="-3287.75" width="150" height="20" as="geometry" />
        </mxCell>
        <mxCell id="GLEPuOQoC-FSqrMFr7xG-68" style="edgeStyle=orthogonalEdgeStyle;rounded=0;orthogonalLoop=1;jettySize=auto;html=1;exitX=1;exitY=0.75;exitDx=0;exitDy=0;entryX=1;entryY=0.5;entryDx=0;entryDy=0;strokeColor=#3399FF;fontSize=17;strokeWidth=3;fontFamily=Calibri;fontStyle=1" parent="1" source="GLEPuOQoC-FSqrMFr7xG-42" target="GLEPuOQoC-FSqrMFr7xG-64" edge="1">
          <mxGeometry relative="1" as="geometry">
            <mxPoint x="-4352" y="-3177.75" as="targetPoint" />
            <Array as="points">
              <mxPoint x="-5073" y="-3396.75" />
              <mxPoint x="-5073" y="-3235.75" />
            </Array>
          </mxGeometry>
        </mxCell>
        <mxCell id="GLEPuOQoC-FSqrMFr7xG-42" value="/moveit_servo" style="rounded=0;whiteSpace=wrap;html=1;movable=1;resizable=1;rotatable=1;deletable=1;editable=1;locked=0;connectable=1;fillColor=#f8cecc;strokeColor=#b85450;fontColor=#000000;fontSize=17;strokeWidth=3;fontFamily=Calibri;fontStyle=1" parent="1" vertex="1">
          <mxGeometry x="-5264.25" y="-3410.75" width="145" height="19" as="geometry" />
        </mxCell>
        <mxCell id="GLEPuOQoC-FSqrMFr7xG-69" style="edgeStyle=orthogonalEdgeStyle;rounded=0;orthogonalLoop=1;jettySize=auto;html=1;exitX=1;exitY=0.5;exitDx=0;exitDy=0;entryX=1;entryY=1;entryDx=0;entryDy=0;strokeColor=#3399FF;fontSize=17;strokeWidth=3;fontFamily=Calibri;fontStyle=1" parent="1" source="GLEPuOQoC-FSqrMFr7xG-47" target="GLEPuOQoC-FSqrMFr7xG-64" edge="1">
          <mxGeometry relative="1" as="geometry">
            <Array as="points">
              <mxPoint x="-5520" y="-3190" />
              <mxPoint x="-5520" y="-3224" />
              <mxPoint x="-5561" y="-3224" />
              <mxPoint x="-5561" y="-3225" />
            </Array>
            <mxPoint x="-6076" y="-3172.75" as="sourcePoint" />
          </mxGeometry>
        </mxCell>
        <mxCell id="GLEPuOQoC-FSqrMFr7xG-47" value="/detection_status_monitor" style="rounded=0;whiteSpace=wrap;html=1;movable=1;resizable=1;rotatable=1;deletable=1;editable=1;locked=0;connectable=1;fillColor=#f8cecc;strokeColor=#b85450;fontColor=#000000;fontSize=17;strokeWidth=3;fontFamily=Calibri;fontStyle=1" parent="1" vertex="1">
          <mxGeometry x="-6224" y="-3200" width="181" height="20" as="geometry" />
        </mxCell>
        <mxCell id="GLEPuOQoC-FSqrMFr7xG-48" style="edgeStyle=orthogonalEdgeStyle;rounded=0;orthogonalLoop=1;jettySize=auto;html=1;exitX=1;exitY=0.5;exitDx=0;exitDy=0;entryX=0;entryY=0.5;entryDx=0;entryDy=0;fontSize=17;strokeWidth=3;fontFamily=Calibri;fontStyle=1" parent="1" source="GLEPuOQoC-FSqrMFr7xG-49" target="GLEPuOQoC-FSqrMFr7xG-51" edge="1">
          <mxGeometry relative="1" as="geometry" />
        </mxCell>
        <mxCell id="GLEPuOQoC-FSqrMFr7xG-49" value="/keyboard_input" style="rounded=0;whiteSpace=wrap;html=1;movable=1;resizable=1;rotatable=1;deletable=1;editable=1;locked=0;connectable=1;fillColor=#ffe6cc;strokeColor=#d79b00;fontSize=17;strokeWidth=3;fontFamily=Calibri;fontStyle=1" parent="1" vertex="1">
          <mxGeometry x="-6068" y="-3419.75" width="150" height="20" as="geometry" />
        </mxCell>
        <mxCell id="GLEPuOQoC-FSqrMFr7xG-53" style="edgeStyle=orthogonalEdgeStyle;rounded=0;orthogonalLoop=1;jettySize=auto;html=1;exitX=1;exitY=0.5;exitDx=0;exitDy=0;entryX=0;entryY=0.25;entryDx=0;entryDy=0;fontSize=17;strokeWidth=3;fontFamily=Calibri;fontStyle=1" parent="1" source="GLEPuOQoC-FSqrMFr7xG-51" target="GLEPuOQoC-FSqrMFr7xG-52" edge="1">
          <mxGeometry relative="1" as="geometry" />
        </mxCell>
        <mxCell id="GLEPuOQoC-FSqrMFr7xG-51" value="/keyboard_input" style="ellipse;whiteSpace=wrap;html=1;movable=1;resizable=1;rotatable=1;deletable=1;editable=1;locked=0;connectable=1;fontSize=17;strokeWidth=3;fontFamily=Calibri;fontStyle=1" parent="1" vertex="1">
          <mxGeometry x="-5880" y="-3427.25" width="146" height="35" as="geometry" />
        </mxCell>
        <mxCell id="GLEPuOQoC-FSqrMFr7xG-58" style="edgeStyle=orthogonalEdgeStyle;rounded=0;orthogonalLoop=1;jettySize=auto;html=1;exitX=1;exitY=0.5;exitDx=0;exitDy=0;entryX=0;entryY=0.5;entryDx=0;entryDy=0;fontSize=17;strokeWidth=3;fontFamily=Calibri;fontStyle=1" parent="1" source="GLEPuOQoC-FSqrMFr7xG-52" target="GLEPuOQoC-FSqrMFr7xG-56" edge="1">
          <mxGeometry relative="1" as="geometry" />
        </mxCell>
        <mxCell id="GLEPuOQoC-FSqrMFr7xG-52" value="/high_level_control" style="rounded=0;whiteSpace=wrap;html=1;movable=1;resizable=1;rotatable=1;deletable=1;editable=1;locked=0;connectable=1;fillColor=#f8cecc;strokeColor=#b85450;fontColor=#000000;fontSize=17;strokeWidth=3;fontFamily=Calibri;fontStyle=1" parent="1" vertex="1">
          <mxGeometry x="-5679" y="-3415.5" width="150" height="20" as="geometry" />
        </mxCell>
        <mxCell id="GLEPuOQoC-FSqrMFr7xG-62" style="edgeStyle=orthogonalEdgeStyle;rounded=0;orthogonalLoop=1;jettySize=auto;html=1;exitX=1;exitY=0.5;exitDx=0;exitDy=0;entryX=0;entryY=0.25;entryDx=0;entryDy=0;fontSize=17;strokeWidth=3;fontFamily=Calibri;fontStyle=1" parent="1" source="GLEPuOQoC-FSqrMFr7xG-56" target="GLEPuOQoC-FSqrMFr7xG-42" edge="1">
          <mxGeometry relative="1" as="geometry" />
        </mxCell>
        <mxCell id="GLEPuOQoC-FSqrMFr7xG-79" style="edgeStyle=orthogonalEdgeStyle;rounded=0;orthogonalLoop=1;jettySize=auto;html=1;exitX=1;exitY=0.5;exitDx=0;exitDy=0;entryX=0;entryY=0.25;entryDx=0;entryDy=0;fontSize=17;strokeWidth=3;fontFamily=Calibri;fontStyle=1" parent="1" source="GLEPuOQoC-FSqrMFr7xG-56" target="GLEPuOQoC-FSqrMFr7xG-41" edge="1">
          <mxGeometry relative="1" as="geometry">
            <Array as="points">
              <mxPoint x="-5297" y="-3405" />
              <mxPoint x="-5297" y="-3283" />
            </Array>
          </mxGeometry>
        </mxCell>
        <mxCell id="GLEPuOQoC-FSqrMFr7xG-56" value="/operation_command" style="ellipse;whiteSpace=wrap;html=1;movable=1;resizable=1;rotatable=1;deletable=1;editable=1;locked=0;connectable=1;fontSize=17;strokeWidth=3;fontFamily=Calibri;fontStyle=1" parent="1" vertex="1">
          <mxGeometry x="-5508" y="-3434.5" width="173" height="58" as="geometry" />
        </mxCell>
        <mxCell id="GLEPuOQoC-FSqrMFr7xG-70" style="edgeStyle=orthogonalEdgeStyle;rounded=0;orthogonalLoop=1;jettySize=auto;html=1;exitX=0;exitY=0;exitDx=0;exitDy=0;entryX=0;entryY=0.75;entryDx=0;entryDy=0;strokeColor=#FF66FF;fontSize=17;strokeWidth=3;fontFamily=Calibri;fontStyle=1" parent="1" source="GLEPuOQoC-FSqrMFr7xG-64" target="GLEPuOQoC-FSqrMFr7xG-52" edge="1">
          <mxGeometry relative="1" as="geometry">
            <Array as="points">
              <mxPoint x="-5718" y="-3246.75" />
              <mxPoint x="-5718" y="-3399.75" />
            </Array>
          </mxGeometry>
        </mxCell>
        <mxCell id="GLEPuOQoC-FSqrMFr7xG-71" style="edgeStyle=orthogonalEdgeStyle;rounded=0;orthogonalLoop=1;jettySize=auto;html=1;exitX=0;exitY=1;exitDx=0;exitDy=0;entryX=0;entryY=0;entryDx=0;entryDy=0;strokeColor=#FF66FF;fontSize=17;strokeWidth=3;fontFamily=Calibri;fontStyle=1" parent="1" source="GLEPuOQoC-FSqrMFr7xG-64" target="GLEPuOQoC-FSqrMFr7xG-34" edge="1">
          <mxGeometry relative="1" as="geometry">
            <mxPoint x="-4721.583333333333" y="-3221.1666666666665" as="targetPoint" />
            <Array as="points">
              <mxPoint x="-5718" y="-3225" />
              <mxPoint x="-5718" y="-3025" />
              <mxPoint x="-6262" y="-3025" />
              <mxPoint x="-6262" y="-2925" />
            </Array>
          </mxGeometry>
        </mxCell>
        <mxCell id="GLEPuOQoC-FSqrMFr7xG-64" value="/operation_status" style="ellipse;whiteSpace=wrap;html=1;movable=1;resizable=1;rotatable=1;deletable=1;editable=1;locked=0;connectable=1;fontSize=17;strokeWidth=3;fontFamily=Calibri;fontStyle=1" parent="1" vertex="1">
          <mxGeometry x="-5702" y="-3253.75" width="157" height="33.5" as="geometry" />
        </mxCell>
        <mxCell id="GLEPuOQoC-FSqrMFr7xG-82" value="" style="rounded=0;whiteSpace=wrap;html=1;movable=1;resizable=1;rotatable=1;deletable=1;editable=1;locked=0;connectable=1;fillColor=#d5e8d4;strokeColor=#82b366;fontSize=17;strokeWidth=3;fontFamily=Calibri;fontStyle=1" parent="1" vertex="1">
          <mxGeometry x="-5274.25" y="-3740" width="120" height="20" as="geometry" />
        </mxCell>
        <mxCell id="GLEPuOQoC-FSqrMFr7xG-83" value="" style="rounded=0;whiteSpace=wrap;html=1;movable=1;resizable=1;rotatable=1;deletable=1;editable=1;locked=0;connectable=1;fillColor=#ffe6cc;strokeColor=#d79b00;fontSize=17;strokeWidth=3;fontFamily=Calibri;fontStyle=1" parent="1" vertex="1">
          <mxGeometry x="-5274.25" y="-3710" width="120" height="20" as="geometry" />
        </mxCell>
        <mxCell id="GLEPuOQoC-FSqrMFr7xG-84" value="" style="rounded=0;whiteSpace=wrap;html=1;movable=1;resizable=1;rotatable=1;deletable=1;editable=1;locked=0;connectable=1;fillColor=#f8cecc;strokeColor=#b85450;fontSize=17;strokeWidth=3;fontFamily=Calibri;fontStyle=1" parent="1" vertex="1">
          <mxGeometry x="-5274.25" y="-3680" width="120" height="20" as="geometry" />
        </mxCell>
        <mxCell id="GLEPuOQoC-FSqrMFr7xG-85" value="Arrow color, for clarity only" style="text;html=1;strokeColor=none;fillColor=none;align=center;verticalAlign=middle;whiteSpace=wrap;rounded=0;fontSize=17;strokeWidth=3;fontFamily=Calibri;fontStyle=1" parent="1" vertex="1">
          <mxGeometry x="-5382.5" y="-3612" width="77.5" height="30" as="geometry" />
        </mxCell>
        <mxCell id="GLEPuOQoC-FSqrMFr7xG-86" value="" style="endArrow=classic;html=1;rounded=0;strokeColor=#000000;fontSize=17;strokeWidth=3;fontFamily=Calibri;fontStyle=1" parent="1" edge="1">
          <mxGeometry width="50" height="50" relative="1" as="geometry">
            <mxPoint x="-5252.25" y="-3620.73" as="sourcePoint" />
            <mxPoint x="-5176.25" y="-3620.73" as="targetPoint" />
          </mxGeometry>
        </mxCell>
        <mxCell id="GLEPuOQoC-FSqrMFr7xG-88" value="" style="endArrow=classic;html=1;rounded=0;strokeColor=#3399FF;fontSize=17;strokeWidth=3;fontFamily=Calibri;fontStyle=1" parent="1" edge="1">
          <mxGeometry width="50" height="50" relative="1" as="geometry">
            <mxPoint x="-5252.25" y="-3606.21" as="sourcePoint" />
            <mxPoint x="-5176.25" y="-3606.21" as="targetPoint" />
          </mxGeometry>
        </mxCell>
        <mxCell id="GLEPuOQoC-FSqrMFr7xG-89" value="" style="endArrow=classic;html=1;rounded=0;strokeColor=#0C9202;fontSize=17;strokeWidth=3;fontFamily=Calibri;fontStyle=1" parent="1" edge="1">
          <mxGeometry width="50" height="50" relative="1" as="geometry">
            <mxPoint x="-5252.25" y="-3590.73" as="sourcePoint" />
            <mxPoint x="-5176.25" y="-3590.73" as="targetPoint" />
          </mxGeometry>
        </mxCell>
        <mxCell id="GLEPuOQoC-FSqrMFr7xG-90" value="" style="endArrow=classic;html=1;rounded=0;strokeColor=#FF66FF;fontSize=17;strokeWidth=3;fontFamily=Calibri;fontStyle=1" parent="1" edge="1">
          <mxGeometry width="50" height="50" relative="1" as="geometry">
            <mxPoint x="-5252.25" y="-3574.23" as="sourcePoint" />
            <mxPoint x="-5176.25" y="-3574.23" as="targetPoint" />
          </mxGeometry>
        </mxCell>
        <mxCell id="HF17gQeOxWjfUrb4KybP-1" style="edgeStyle=orthogonalEdgeStyle;rounded=0;orthogonalLoop=1;jettySize=auto;html=1;entryX=0;entryY=0.5;entryDx=0;entryDy=0;exitX=1;exitY=0.75;exitDx=0;exitDy=0;fontSize=17;strokeWidth=3;fontFamily=Calibri;fontStyle=1" parent="1" source="HF17gQeOxWjfUrb4KybP-2" target="HF17gQeOxWjfUrb4KybP-3" edge="1">
          <mxGeometry relative="1" as="geometry">
            <mxPoint x="-6310" y="-2918" as="sourcePoint" />
            <Array as="points">
              <mxPoint x="-6775" y="-2975" />
              <mxPoint x="-6775" y="-2845" />
            </Array>
          </mxGeometry>
        </mxCell>
        <mxCell id="HF17gQeOxWjfUrb4KybP-2" value="/aruco_node" style="rounded=0;whiteSpace=wrap;html=1;movable=1;resizable=1;rotatable=1;deletable=1;editable=1;locked=0;connectable=1;fillColor=#ffe6cc;strokeColor=#d79b00;fontColor=#000000;fontSize=17;strokeWidth=3;fontFamily=Calibri;fontStyle=1" parent="1" vertex="1">
          <mxGeometry x="-6927.5" y="-2990" width="100" height="20" as="geometry" />
        </mxCell>
        <mxCell id="HF17gQeOxWjfUrb4KybP-6" style="edgeStyle=orthogonalEdgeStyle;rounded=0;orthogonalLoop=1;jettySize=auto;html=1;exitX=1;exitY=0.5;exitDx=0;exitDy=0;entryX=0;entryY=0.75;entryDx=0;entryDy=0;fontSize=17;strokeWidth=3;fontFamily=Calibri;fontStyle=1" parent="1" source="HF17gQeOxWjfUrb4KybP-3" target="GLEPuOQoC-FSqrMFr7xG-41" edge="1">
          <mxGeometry relative="1" as="geometry">
            <mxPoint x="-3808" y="-3285" as="targetPoint" />
            <Array as="points">
              <mxPoint x="-5299" y="-2845" />
              <mxPoint x="-5299" y="-3273" />
            </Array>
          </mxGeometry>
        </mxCell>
        <mxCell id="HF17gQeOxWjfUrb4KybP-3" value="/tool_tf" style="ellipse;whiteSpace=wrap;html=1;movable=1;resizable=1;rotatable=1;deletable=1;editable=1;locked=0;connectable=1;fontSize=17;strokeWidth=3;fontFamily=Calibri;fontStyle=1" parent="1" vertex="1">
          <mxGeometry x="-6746.5" y="-2860" width="90" height="30" as="geometry" />
        </mxCell>
        <mxCell id="ZQrqd_sA71BFdKKhoDgL-1" style="edgeStyle=orthogonalEdgeStyle;rounded=0;orthogonalLoop=1;jettySize=auto;html=1;exitX=0.5;exitY=1;exitDx=0;exitDy=0;fontSize=17;fontFamily=Calibri;strokeWidth=3;fontStyle=1;entryX=0.5;entryY=0;entryDx=0;entryDy=0;" edge="1" parent="1" source="HF17gQeOxWjfUrb4KybP-11" target="ZQrqd_sA71BFdKKhoDgL-2">
          <mxGeometry relative="1" as="geometry">
            <mxPoint x="-5164" y="-3064" as="targetPoint" />
          </mxGeometry>
        </mxCell>
        <mxCell id="HF17gQeOxWjfUrb4KybP-11" value="/arduino_command" style="ellipse;whiteSpace=wrap;html=1;movable=1;resizable=1;rotatable=1;deletable=1;editable=1;locked=0;connectable=1;fontSize=17;strokeWidth=3;fontFamily=Calibri;fontStyle=1" parent="1" vertex="1">
          <mxGeometry x="-5239" y="-3171.75" width="150.25" height="54" as="geometry" />
        </mxCell>
        <mxCell id="ZQrqd_sA71BFdKKhoDgL-2" value="/arduino_node" style="rounded=0;whiteSpace=wrap;html=1;movable=1;resizable=1;rotatable=1;deletable=1;editable=1;locked=0;connectable=1;fillColor=#d5e8d4;strokeColor=#82b366;fontSize=17;strokeWidth=3;fontFamily=Calibri;fontStyle=1" vertex="1" parent="1">
          <mxGeometry x="-5239" y="-3058" width="150" height="20" as="geometry" />
        </mxCell>
      </root>
    </mxGraphModel>
  </diagram>
</mxfile>
